<svg xmlns="http://www.w3.org/2000/svg" width="64" height="64" xmlns:v="https://vecta.io/nano"><path d="M8.646 8.56c11.133-11.133 36.099-11.133 47.232 0 11.117 11.117 11.117 36.049 0 47.167-11.133 11.133-36.099 11.133-47.232 0-11.117-11.117-11.117-36.049 0-47.167z" fill="#fff"/><path d="M31.205 2.352h2.517l12.587 30.293h-3.157l-4.608-11.819H26.256l-4.523 11.819h-3.2zm7.339 18.475L32.442 5.851l-6.187 14.976zM30.203 44.02l1.895-4.645 1.774 4.645h0l5.803 13.696L50.64 30.878h3.243L41.04 61.172h-2.645l-6.357-14.976-6.4 14.976h-2.603l-12.8-30.293h3.2l11.008 26.837z"/></svg>