<svg xmlns="http://www.w3.org/2000/svg" xmlns:xlink="http://www.w3.org/1999/xlink" width="1128" height="191" xmlns:v="https://vecta.io/nano"><g transform="matrix(5.7609 0 0 5.7609 -46.731538 -87.329115)"><path d="M28.973 20.678H30.7v15.545q0 .991.356 1.295.356.305.864.305.457 0 .914-.102.457-.102.787-.203l.305 1.397q-.483.203-1.194.33-.686.127-1.194.127-1.168 0-1.88-.686-.686-.686-.686-1.88zm12.535 18.796q-1.422 0-2.642-.533-1.219-.559-2.108-1.499-.889-.965-1.397-2.21-.483-1.245-.483-2.667 0-1.854.838-3.404.864-1.549 2.362-2.464 1.499-.94 3.404-.94 1.956 0 3.404.94 1.473.94 2.311 2.489.838 1.524.838 3.353 0 .203 0 .406 0 .178-.025.279H36.682q.127 1.422.787 2.54.686 1.092 1.753 1.753 1.092.635 2.362.635 1.295 0 2.438-.66 1.168-.66 1.626-1.727l1.499.406q-.406.94-1.245 1.702-.838.762-1.981 1.194-1.118.406-2.413.406zm-4.877-7.493h9.779q-.102-1.448-.787-2.54-.66-1.092-1.753-1.702-1.067-.635-2.362-.635-1.295 0-2.362.635-1.067.61-1.753 1.727-.66 1.092-.762 2.515zm14.005-5.994l3.886 5.182.203.381.203-.381 3.861-5.182h1.956l-5.029 6.655 5.029 6.579h-1.956l-3.861-5.156-.203-.356-.203.356-3.861 5.156h-1.956l5.004-6.579-5.004-6.655z"/><use xlink:href="#B"/><use xlink:href="#C"/><path d="M90.665 32.642q0-1.88.762-3.429.787-1.575 2.159-2.515 1.372-.94 3.124-.94 1.651 0 2.946.889 1.321.864 2.057 2.108v-8.077h1.727v16.459q0 .356.152.533.152.152.457.178v1.372q-.508.076-.787.051-.533-.025-.94-.432-.406-.406-.406-.889v-1.295q-.787 1.295-2.134 2.057-1.346.762-2.794.762-1.372 0-2.54-.559-1.143-.559-2.007-1.524-.838-.965-1.321-2.184-.457-1.245-.457-2.565zm11.049 2.032v-4.089q-.33-.914-1.067-1.651-.737-.762-1.676-1.194-.914-.457-1.829-.457-1.067 0-1.93.457-.864.432-1.499 1.194-.61.762-.94 1.727-.33.965-.33 1.981 0 1.067.356 2.032.381.965 1.067 1.727.686.737 1.575 1.143.889.406 1.93.406.66 0 1.372-.254.711-.254 1.346-.686.66-.457 1.092-1.067.432-.61.533-1.27zm11.331 4.8q-1.422 0-2.642-.533-1.219-.559-2.108-1.499-.889-.965-1.397-2.21-.483-1.245-.483-2.667 0-1.854.838-3.404.864-1.549 2.362-2.464 1.499-.94 3.404-.94 1.956 0 3.404.94 1.473.94 2.311 2.489.838 1.524.838 3.353 0 .203 0 .406 0 .178-.025.279h-11.328q.127 1.422.787 2.54.686 1.092 1.753 1.753 1.092.635 2.362.635 1.295 0 2.438-.66 1.168-.66 1.626-1.727l1.499.406q-.406.94-1.245 1.702-.838.762-1.981 1.194-1.118.406-2.413.406zm-4.877-7.493h9.779q-.102-1.448-.787-2.54-.66-1.092-1.753-1.702-1.067-.635-2.362-.635-1.295 0-2.362.635-1.067.61-1.753 1.727-.66 1.092-.762 2.515zm20.698-4.47q-1.727.051-3.048.965-1.295.914-1.829 2.515v8.23h-1.727V25.987h1.626v3.175q.686-1.397 1.803-2.261 1.143-.864 2.413-.965.254-.025.432-.025.203 0 .33.025zm14.523-6.198h1.676l2.54 6.401 2.565-6.401h1.702l-3.15 7.696 3.454 8.153 6.528-15.977h1.93l-7.645 18.034h-1.575l-3.785-8.915-3.81 8.915h-1.549l-7.62-18.034h1.905l6.553 15.977 3.429-8.153z"/><use xlink:href="#B" x="98.673"/><use xlink:href="#C" x="98.673"/><path d="M195.536 39.398q-1.346 0-2.489-.559-1.143-.559-1.981-1.499-.813-.965-1.27-2.184-.457-1.219-.457-2.515 0-1.397.432-2.616.457-1.245 1.27-2.21.838-.965 1.956-1.499 1.118-.559 2.489-.559 1.702 0 2.946.864 1.27.864 2.134 2.134v-2.769h1.549V39.27q0 1.829-.889 3.073-.864 1.27-2.362 1.905-1.473.635-3.226.635-2.261 0-3.658-.813-1.397-.813-2.286-2.184l1.067-.838q.787 1.245 2.083 1.854 1.321.61 2.794.61 1.295 0 2.362-.483 1.092-.457 1.727-1.397.66-.94.66-2.362v-2.616q-.762 1.245-2.083 2.007-1.321.737-2.769.737zm.483-1.448q.787 0 1.499-.279.737-.279 1.346-.737.61-.483 1.016-1.067.406-.584.508-1.194v-4.089q-.381-.965-1.092-1.702-.711-.762-1.626-1.168-.889-.432-1.854-.432-1.118 0-2.007.483-.864.457-1.473 1.245-.584.762-.914 1.727-.33.965-.33 1.93 0 1.067.381 2.032.381.94 1.041 1.702.686.737 1.575 1.143.914.406 1.93.406zM17.345 18.581h.893l4.462 10.74h-1.119l-1.634-4.19H15.59l-1.603 4.19h-1.135zm2.602 6.55l-2.163-5.31-2.193 5.31zm-2.957 8.224l.672-1.647.629 1.647h0l2.057 4.856 3.888-9.516h1.15l-4.554 10.741h-.938l-2.254-5.31-2.269 5.31h-.923L9.91 28.696h1.135l3.903 9.516z"/></g><defs ><path id="B" d="M61.813 35.41q0-1.245.711-2.134.711-.914 1.956-1.397 1.27-.508 2.921-.508.965 0 2.007.152 1.041.152 1.854.457v-1.118q0-1.676-.991-2.667-.991-.991-2.743-.991-1.067 0-2.108.406-1.016.381-2.134 1.143l-.66-1.219q1.295-.889 2.54-1.321 1.245-.457 2.54-.457 2.438 0 3.861 1.397 1.422 1.397 1.422 3.861v6.121q0 .356.152.533.152.152.483.178v1.372q-.279.025-.483.051-.203.025-.305 0-.635-.025-.965-.406-.33-.381-.356-.813l-.025-.965q-.889 1.143-2.311 1.778-1.422.61-2.896.61-1.27 0-2.311-.533-1.016-.559-1.6-1.473-.559-.94-.559-2.057zm8.865 1.016q.279-.356.432-.686.152-.33.152-.584v-1.93q-.864-.33-1.803-.508-.914-.178-1.854-.178-1.854 0-2.997.737-1.143.737-1.143 2.007 0 .737.381 1.397.381.635 1.118 1.067.737.406 1.727.406 1.245 0 2.311-.483 1.092-.483 1.676-1.245z"/><path id="C" d="M87.846 39.22h-1.727v-7.391q0-2.337-.686-3.404-.686-1.092-2.159-1.092-1.016 0-2.007.508-.991.483-1.753 1.346-.737.838-1.067 1.93v8.103h-1.727V25.987h1.575v2.997q.533-.965 1.397-1.676.864-.737 1.956-1.143 1.092-.406 2.261-.406 1.092 0 1.854.406.762.406 1.219 1.168.457.737.66 1.803.203 1.041.203 2.337z"/></defs></svg>